<?xml version="1.0" standalone="no"?>
<!DOCTYPE svg PUBLIC "-//W3C//DTD SVG 20010904//EN"
 "http://www.w3.org/TR/2001/REC-SVG-20010904/DTD/svg10.dtd">
<svg version="1.0" xmlns="http://www.w3.org/2000/svg"
 width="500.000000pt" height="500.000000pt" viewBox="0 0 500.000000 500.000000"
 preserveAspectRatio="xMidYMid meet">
<metadata>
Created by potrace 1.14, written by Peter Selinger 2001-2017
</metadata>
<g transform="translate(0.000000,500.000000) scale(0.100000,-0.100000)"
fill="#000000" stroke="none">
<path d="M2265 4994 c-16 -3 -79 -11 -140 -20 -789 -110 -1511 -638 -1870
-1369 -171 -348 -255 -712 -255 -1105 0 -292 38 -526 131 -805 119 -356 326
-691 593 -958 381 -381 869 -630 1396 -712 142 -23 477 -31 627 -15 346 35
668 135 964 301 454 254 808 625 1034 1084 170 346 255 714 255 1105 0 292
-38 527 -131 805 -293 876 -1065 1524 -1989 1670 -101 16 -541 30 -615 19z
m450 -529 c32 -9 82 -29 109 -45 101 -57 130 -113 124 -232 -4 -93 7 -102 85
-64 69 34 103 29 152 -21 33 -34 39 -36 98 -37 102 -2 144 -44 154 -155 5 -57
23 -84 49 -74 8 3 28 0 44 -7 34 -14 45 -50 36 -115 -5 -33 -2 -52 14 -81 36
-69 20 -134 -44 -173 -29 -18 -38 -33 -56 -94 -69 -227 -184 -291 -337 -186
-54 37 -78 29 -86 -31 -12 -90 -57 -119 -146 -95 -101 29 -108 29 -121 5 -27
-50 -102 -58 -184 -19 -60 29 -73 25 -100 -30 -55 -107 -156 -156 -279 -133
-86 16 -97 5 -68 -72 12 -31 21 -73 21 -94 0 -74 -77 -194 -155 -242 -28 -17
-34 -29 -45 -83 -24 -122 -89 -219 -174 -258 -50 -23 -162 -25 -210 -5 -48 20
-103 81 -137 153 -26 54 -45 125 -77 293 -5 26 -16 39 -43 53 -57 30 -80 82
-88 195 l-6 97 -38 -2 c-53 -4 -75 11 -99 64 -11 26 -44 69 -73 98 -65 63 -77
105 -52 176 17 46 17 47 -9 94 -24 42 -26 50 -15 86 6 21 30 59 51 84 22 26
40 48 40 51 0 2 -9 21 -20 41 -26 48 -26 118 -1 159 23 38 86 100 123 122 26
15 28 21 28 82 0 91 16 139 59 180 44 42 97 60 176 60 56 0 58 1 104 50 41 43
52 50 85 50 33 0 46 -8 89 -50 28 -27 54 -50 58 -50 4 0 26 18 49 40 55 53
100 65 167 44 l53 -17 40 37 c68 61 129 72 209 36 24 -11 47 -20 52 -20 5 0
34 20 64 45 67 54 98 71 167 89 69 19 92 19 163 1z m1031 -1240 c112 -37 208
-140 248 -265 29 -89 41 -187 61 -500 22 -329 22 -645 0 -730 -27 -107 -72
-189 -139 -256 -92 -92 -205 -142 -357 -158 l-56 -6 -7 77 c-3 42 -6 97 -6
123 l0 47 67 17 c136 33 216 120 259 281 28 103 14 710 -21 876 -45 221 -171
284 -310 158 l-53 -49 -7 133 -7 134 37 49 c21 27 43 60 49 73 10 23 13 24
101 18 49 -3 113 -13 141 -22z m-396 -157 c1 -2 20 -433 44 -958 l44 -954 -51
-49 c-131 -125 -364 -215 -650 -253 -185 -24 -556 -29 -724 -10 -289 34 -496
108 -623 223 l-40 35 0 173 c0 94 3 369 7 609 l6 437 34 -72 c19 -40 41 -82
51 -92 15 -17 18 -62 23 -436 7 -475 7 -475 90 -565 55 -60 84 -74 226 -110
224 -57 332 -70 578 -70 254 -1 360 13 575 75 190 55 259 101 308 208 l26 56
-2 345 c-4 515 -21 1119 -38 1332 l-5 67 48 4 c26 2 54 4 61 5 6 1 12 1 12 0z
m145 -2078 c52 -152 43 -281 -22 -345 -80 -77 -320 -172 -555 -219 -342 -68
-832 -65 -1173 9 -183 39 -369 109 -433 161 -32 27 -45 108 -32 207 9 71 37
206 45 215 2 2 27 -14 57 -36 192 -144 520 -222 928 -222 536 0 933 106 1125
298 11 11 23 17 27 13 4 -4 19 -40 33 -81z"/>
<path d="M1463 3971 c-119 -33 -114 -25 -92 -128 24 -107 26 -113 39 -113 5 0
10 15 10 34 0 67 74 139 156 152 61 9 129 -17 155 -60 73 -120 -66 -346 -359
-581 l-62 -50 68 -9 c37 -4 165 -10 285 -11 l217 -2 36 114 c20 63 32 118 28
121 -4 4 -9 1 -11 -6 -11 -31 -57 -72 -91 -82 -20 -5 -93 -10 -161 -10 l-123
0 139 138 c159 156 193 209 193 299 0 86 -41 142 -135 184 -70 32 -195 36
-292 10z"/>
<path d="M2263 3974 c-194 -71 -282 -378 -173 -601 108 -219 394 -232 518 -23
70 119 73 353 5 483 -23 46 -84 107 -127 129 -54 28 -165 34 -223 12z m176
-73 c120 -85 122 -470 4 -594 -78 -80 -192 -39 -238 85 -16 43 -20 79 -20 188
0 192 34 287 120 331 47 23 91 20 134 -10z"/>
</g>
</svg>
